# xmcd
# Copyright (C) 1995-1998 Ti Kan
#
# Track frame offsets:
#       150
#       5365
#       12275
#       26493
#       51009
#       54048
#       62618
#       70934
#       75341
#       81681
#       90762
#       97671
#       105655
#       111660
#       120582
#       123797
#       131780
#       138870
#       146346
#       151317
#       160287
#       169903
#       179932
#       187145
#       206688
#
# Disc length: 2816 seconds
#
# Revision: 0
# Processed by: cddbd v1.5.1PL0 Copyright (c) Steve Scherf et al.
# Submitted via: CD-Transfer v1.0
#
DISCID=4c0afe19
DTITLE=Mani Matter - 
DYEAR=03
DGENRE=
TTITLE0=Betrachtige über nes Sändwitsch
TTITLE1=Ds Zündhölzli
TTITLE2=Hemmige
TTITLE3=Der Stuhl
TTITLE4=Dialog im Strandbad
TTITLE5=Ds Doppelbett
TTITLE6=Bim Coiffeur
TTITLE7=Dr eint het Angscht
TTITLE8=Ds Nünitram
TTITLE9=D'Psyche vo dr Frou
TTITLE10=Dr Ferdinand isch gstorbe
TTITLE11=I han e Uhr erfunde
TTITLE12=Dr Alpeflug
TTITLE13=Chue am Waldrand
TTITLE14=Us emene lääre Gygechaschte
TTITLE15=Ir Ysebahn
TTITLE16=E Löl, e blöde Siech, e Glünggi un e Sürmel
TTITLE17=Dene wos guet geit
TTITLE18=Tram
TTITLE19=Farbfoto
TTITLE20=Si hei der Willhälm Täll ufgfüert
TTITLE21=Dr Alpeflug
TTITLE22=Di Strass woni dran wohne
TTITLE23=WArum syt dir so truurig?
TTITLE24=Dr Eskimo
EXTD=
EXTT0=
EXTT1=
EXTT2=
EXTT3=
EXTT4=
EXTT5=
EXTT6=
EXTT7=
EXTT8=
EXTT9=
EXTT10=
EXTT11=
EXTT12=
EXTT13=
EXTT14=
EXTT15=
EXTT16=
EXTT17=
EXTT18=
EXTT19=
EXTT20=
EXTT21=
EXTT22=
EXTT23=
EXTT24=
PLAYORDER=
